<svg xmlns="http://www.w3.org/2000/svg" xmlns:xlink="http://www.w3.org/1999/xlink" version="1.1" width="256" height="256" viewBox="0 0 256 256" xml:space="preserve">

<defs>
</defs>
<g style="stroke: none; stroke-width: 0; stroke-dasharray: none; stroke-linecap: butt; stroke-linejoin: miter; stroke-miterlimit: 10; fill: none; fill-rule: nonzero; opacity: 1;" transform="translate(1.4065934065934016 1.4065934065934016) scale(2.81 2.81)" >
	<path d="M 69.182 90 H 20.818 c -3.743 0 -6.788 -3.045 -6.788 -6.787 V 70.449 C 14.031 53.373 27.923 39.48 45 39.48 c 17.076 0 30.969 13.893 30.969 30.969 v 12.764 C 75.969 86.955 72.924 90 69.182 90 z M 45 43.48 c -14.871 0 -26.969 12.098 -26.969 26.969 v 12.764 c 0 1.537 1.25 2.787 2.788 2.787 h 48.363 c 1.537 0 2.787 -1.25 2.787 -2.787 V 70.449 C 71.969 55.578 59.871 43.48 45 43.48 z" style="stroke: none; stroke-width: 1; stroke-dasharray: none; stroke-linecap: butt; stroke-linejoin: miter; stroke-miterlimit: 10; fill: rgb(0,0,0); fill-rule: nonzero; opacity: 1;" transform=" matrix(1 0 0 1 0 0) " stroke-linecap="round" />
	<path d="M 45.381 43.48 h -0.763 c -9.309 0 -16.881 -7.573 -16.881 -16.881 v -9.718 C 27.737 7.573 35.31 0 44.619 0 h 0.763 c 9.308 0 16.881 7.573 16.881 16.881 v 9.718 C 62.263 35.907 54.689 43.48 45.381 43.48 z M 44.619 4 c -7.103 0 -12.881 5.778 -12.881 12.881 v 9.718 c 0 7.103 5.778 12.881 12.881 12.881 h 0.763 c 7.103 0 12.881 -5.778 12.881 -12.881 v -9.718 C 58.263 9.778 52.484 4 45.381 4 H 44.619 z" style="stroke: none; stroke-width: 1; stroke-dasharray: none; stroke-linecap: butt; stroke-linejoin: miter; stroke-miterlimit: 10; fill: rgb(0,0,0); fill-rule: nonzero; opacity: 1;" transform=" matrix(1 0 0 1 0 0) " stroke-linecap="round" />
	<path d="M 5.38 14.751 c -0.166 0 -0.328 -0.032 -0.482 -0.096 l -1.17 -0.485 c -0.641 -0.266 -0.947 -1.004 -0.681 -1.645 c 0.011 -0.026 0.031 -0.076 -0.026 -0.134 c -0.058 -0.057 -0.107 -0.037 -0.134 -0.026 c -0.31 0.128 -0.652 0.128 -0.963 0 c -0.311 -0.129 -0.553 -0.371 -0.681 -0.681 l -0.485 -1.17 c -0.129 -0.31 -0.129 -0.652 0 -0.963 c 0.129 -0.311 0.37 -0.553 0.681 -0.681 c 0.027 -0.011 0.076 -0.032 0.076 -0.113 c 0 -0.082 -0.049 -0.102 -0.076 -0.113 c -0.31 -0.128 -0.553 -0.37 -0.681 -0.681 c -0.129 -0.31 -0.129 -0.652 0 -0.963 l 0.485 -1.17 c 0.128 -0.31 0.37 -0.553 0.681 -0.681 c 0.311 -0.129 0.653 -0.129 0.963 0 C 2.916 5.158 2.963 5.178 3.02 5.12 c 0.058 -0.058 0.038 -0.107 0.027 -0.134 c -0.129 -0.311 -0.129 -0.653 0 -0.963 C 3.176 3.712 3.418 3.47 3.728 3.342 l 1.17 -0.485 c 0.311 -0.129 0.653 -0.129 0.964 0 c 0.31 0.128 0.552 0.371 0.681 0.681 c 0.011 0.026 0.031 0.075 0.113 0.075 S 6.759 3.565 6.77 3.538 c 0.266 -0.641 1.004 -0.946 1.644 -0.681 l 0.201 0.083 l -0.393 0.95 L 8.021 3.807 C 7.903 3.759 7.768 3.815 7.719 3.933 c -0.217 0.523 -0.691 0.71 -1.063 0.71 c -0.372 0 -0.846 -0.187 -1.063 -0.71 C 5.569 3.874 5.526 3.831 5.469 3.807 c -0.058 -0.024 -0.119 -0.024 -0.176 0 l -1.17 0.485 C 4.064 4.316 4.021 4.359 3.997 4.417 c -0.024 0.057 -0.024 0.119 0 0.176 c 0.217 0.524 0.013 0.992 -0.25 1.254 C 3.485 6.11 3.017 6.314 2.494 6.097 c -0.058 -0.024 -0.119 -0.024 -0.176 0 C 2.259 6.12 2.216 6.163 2.193 6.221 L 1.708 7.392 c -0.024 0.058 -0.024 0.119 0 0.176 c 0.024 0.058 0.067 0.101 0.124 0.125 c 0.524 0.217 0.711 0.692 0.711 1.063 c 0 0.372 -0.187 0.846 -0.711 1.063 c -0.076 0.032 -0.11 0.092 -0.124 0.125 c -0.014 0.033 -0.032 0.1 0 0.176 l 0.485 1.171 c 0.024 0.058 0.067 0.101 0.125 0.125 c 0.057 0.024 0.118 0.024 0.176 0 c 0.524 -0.217 0.991 -0.013 1.254 0.25 c 0.263 0.263 0.466 0.73 0.25 1.254 c -0.049 0.117 0.007 0.253 0.125 0.301 l 1.17 0.485 c 0.057 0.024 0.119 0.023 0.176 0 c 0.058 -0.024 0.101 -0.067 0.125 -0.125 c 0.217 -0.524 0.692 -0.71 1.063 -0.71 c 0.04 0 0.101 0.002 0.175 0.014 L 6.679 13.9 c -0.098 0.003 -0.125 0.047 -0.135 0.074 c -0.129 0.311 -0.371 0.553 -0.681 0.681 C 5.709 14.718 5.546 14.751 5.38 14.751 z" style="stroke: none; stroke-width: 1; stroke-dasharray: none; stroke-linecap: butt; stroke-linejoin: miter; stroke-miterlimit: 10; fill: rgb(0,0,0); fill-rule: nonzero; opacity: 1;" transform=" matrix(3.89 0 0 3.89 -1.9444444444444287 -1.9444444444444287) " stroke-linecap="round" />
	<path d="M 67.115 52.018 l -2.396 -3.203 c 2.809 -2.102 4.42 -5.31 4.42 -8.802 c 0 -5.407 -3.869 -9.966 -9.2 -10.84 l 0.648 -3.947 c 7.272 1.193 12.552 7.412 12.552 14.788 C 73.139 44.708 70.887 49.195 67.115 52.018 z" style="stroke: none; stroke-width: 1; stroke-dasharray: none; stroke-linecap: butt; stroke-linejoin: miter; stroke-miterlimit: 10; fill: rgb(0,0,0); fill-rule: nonzero; opacity: 1;" transform=" matrix(1 0 0 1 0 0) " stroke-linecap="round" />
	<path d="M 19.734 17.831 l -0.625 -0.816 c 0.182 -0.14 0.248 -0.385 0.161 -0.596 c -0.262 -0.632 -0.016 -1.195 0.301 -1.512 c 0.316 -0.317 0.879 -0.561 1.511 -0.3 c 0.258 0.106 0.554 -0.017 0.661 -0.274 l 0.664 -1.604 c 0.105 -0.255 -0.014 -0.549 -0.267 -0.658 l -0.007 -0.003 c -0.631 -0.261 -0.856 -0.833 -0.856 -1.281 c -0.001 -0.447 0.224 -1.019 0.856 -1.281 c 0.125 -0.052 0.222 -0.149 0.274 -0.274 c 0.052 -0.127 0.052 -0.261 0 -0.387 L 21.742 7.24 c -0.107 -0.258 -0.403 -0.38 -0.661 -0.274 c -0.632 0.262 -1.195 0.016 -1.512 -0.301 c -0.316 -0.316 -0.562 -0.879 -0.3 -1.511 c 0.052 -0.126 0.052 -0.26 0 -0.387 c -0.052 -0.125 -0.149 -0.222 -0.274 -0.274 l -1.604 -0.665 c -0.257 -0.107 -0.554 0.016 -0.661 0.274 c -0.107 0.257 -0.271 0.463 -0.487 0.612 l -0.583 -0.847 c 0.051 -0.035 0.09 -0.087 0.12 -0.159 c 0.324 -0.781 1.223 -1.153 2.004 -0.83 l 1.604 0.665 c 0.379 0.157 0.674 0.452 0.83 0.83 c 0.157 0.378 0.157 0.795 0 1.174 c -0.076 0.183 0 0.314 0.077 0.391 c 0.078 0.078 0.208 0.154 0.391 0.078 c 0.781 -0.324 1.681 0.048 2.005 0.83 l 0.665 1.604 c 0.157 0.379 0.157 0.796 0 1.175 c -0.157 0.378 -0.452 0.673 -0.83 0.83 c -0.183 0.076 -0.221 0.221 -0.221 0.33 c 0 0.109 0.037 0.253 0.214 0.329 l 0.008 0.003 c 0.781 0.324 1.153 1.223 0.83 2.004 l -0.665 1.604 c -0.324 0.78 -1.223 1.153 -2.004 0.831 c -0.184 -0.076 -0.314 0 -0.391 0.077 c -0.078 0.077 -0.154 0.208 -0.078 0.391 C 20.485 16.666 20.285 17.409 19.734 17.831 z" style="stroke: none; stroke-width: 1; stroke-dasharray: none; stroke-linecap: butt; stroke-linejoin: miter; stroke-miterlimit: 10; fill: rgb(0,0,0); fill-rule: nonzero; opacity: 1;" transform=" matrix(3.89 0 0 3.89 -1.9444444444444287 -1.9444444444444287) " stroke-linecap="round" />
	<path d="M 23.949 43.591 c -6.328 0 -11.476 -5.148 -11.476 -11.476 S 17.621 20.64 23.949 20.64 c 2.563 0 4.99 0.83 7.016 2.399 l -2.449 3.162 c -1.319 -1.021 -2.898 -1.562 -4.567 -1.562 c -4.122 0 -7.476 3.354 -7.476 7.476 s 3.354 7.476 7.476 7.476 c 3.088 0 5.818 -1.859 6.957 -4.737 l 3.72 1.471 C 32.879 40.739 28.688 43.591 23.949 43.591 z" style="stroke: none; stroke-width: 1; stroke-dasharray: none; stroke-linecap: butt; stroke-linejoin: miter; stroke-miterlimit: 10; fill: rgb(0,0,0); fill-rule: nonzero; opacity: 1;" transform=" matrix(1 0 0 1 0 0) " stroke-linecap="round" />
</g>
</svg>