<svg fill="none" height="48" viewBox="0 0 48 48" width="48" xmlns="http://www.w3.org/2000/svg"><g fill="#333"><path clip-rule="evenodd" d="m31.5083 13.9475 3.3971-4.96602c-3.1409.18707-6.9395.92474-10.5842 1.97912-2.4766.7165-5.2347.6084-7.7989.1353-.8076-.149-1.6032-.3356-2.3735-.5478l2.3074 3.3969c4.7115 1.7392 10.3398 1.74 15.0521.0025zm-16.2268 1.689c5.4207 2.152 11.9935 2.1513 17.4135-.002 2.2037 2.2862 4.48 5.1312 6.2339 8.1071 1.8336 3.111 2.991 6.1879 3.0671 8.8307.072 2.5011-.8067 4.6558-3.2819 6.3102-2.6231 1.7532-7.1939 3.0419-14.6901 3.1144-7.4983.0725-12.0761-1.1289-14.70667-2.8296-2.47558-1.6005-3.37133-3.732-3.31488-6.2471.05968-2.6588 1.20374-5.7799 3.0334-8.9567 1.74665-3.0328 4.02355-5.9532 6.24565-8.327zm-1.6195-7.31701c1.0273.32337 2.1156.60522 3.2232.80957 2.3977.44241 4.8135.50821 6.8802-.08967 2.6265-.75984 5.3838-1.37555 7.9676-1.74029-2.2048-.72585-4.8704-1.2991-7.6897-1.2991-4.069 0-7.8465 1.19394-10.3813 2.31949zm-1.9151-1.30718c2.7049-1.35485 7.278-3.01231 12.2964-3.01231 4.9254 0 9.3874 1.59663 12.0806 2.93673.0453.02251.09.04494.1342.0673.7257.36675 1.3155.71167 1.7419.99597l-4.1044 6c9.4618 9.6727 20.7545 29.701-9.8523 29.9968-30.60686.2958-19.51156-19.9542-9.9675-29.9968l-4.0758-6c.2852-.18744.642-.40122 1.0622-.63025.2124-.11573.4409-.23536.6847-.35744z" fill-rule="evenodd"/><path d="m22.2887 21h3.4226v1.6h3.4226v3.2h-6.8452l-.154.0128c-.1973.0334-.3758.1305-.5043.2744-.1285.1438-.199.3254-.199.5128s.0705.369.199.5128c.1285.1439.307.241.5043.2744l.154.0128h3.4226l.2806.008c1.11.0657 2.149.5329 2.8968 1.3026.7477.7697 1.1455 1.7814 1.109 2.8207s-.5044 2.0244-1.3045 2.7465c-.8003.7223-1.8697 1.1248-2.9819 1.1222v1.6h-3.4226v-1.6h-3.4226v-3.2h6.8452l.154-.0128c.1973-.0334.3758-.1305.5043-.2744.1285-.1438.199-.3254.199-.5128s-.0705-.369-.199-.5128c-.1285-.1439-.307-.241-.5043-.2744l-.154-.0128h-3.4226l-.2806-.008c-1.11-.0657-2.149-.5329-2.8968-1.3026-.7477-.7697-1.1455-1.7814-1.109-2.8207s.5044-2.0244 1.3045-2.7465c.8003-.7223 1.8697-1.1248 2.9819-1.1222z"/></g></svg>